<?xml version="1.0" encoding="UTF-8"?>
<svg xmlns="http://www.w3.org/2000/svg" xmlns:xlink="http://www.w3.org/1999/xlink" viewBox="0 0 250 250">
    <defs>
    <style>
    </style>
</defs>
<g id="Header">
    <path class="cls-2" d="M225.05,120.76c-2.74,0-4.79-.85-6.15-2.55-1.36-1.7-2.03-3.84-2.03-6.41s.73-4.71,2.2-6.41c1.46-1.7,3.48-2.55,6.04-2.55s4.61.73,6.15,2.2c1.54,1.47,2.31,3.62,2.31,6.47s-.73,5.11-2.2,6.77c-1.46,1.66-3.57,2.49-6.31,2.49ZM225.44,98.43c-.67,0-1.21-.54-1.21-1.21v-9.01c0-6.81-1.19-14.9-3.57-24.29-2.38-9.38-3.57-15.77-3.57-19.18s.86-5.86,2.58-7.36c1.72-1.5,3.82-2.26,6.31-2.26,5.56,0,8.34,3.21,8.34,9.62,0,3.72-1.28,10.21-3.84,19.48-2.56,9.26-3.84,17.3-3.84,24.11v8.89c0,.67-.54,1.21-1.21,1.21h0Z"/>
    <g>
        <path class="cls-2" d="M80.03,35.29h6.81v34.14h17.12v.9h-23.93v-35.04Z"/>
        <path class="cls-2" d="M104.36,57.82c0-7.41,5.71-13.02,13.37-13.02,6.21,0,11.21,3.55,11.21,8.91,0,.95-.15,1.8-.4,2.6h-17.12v.1c0,7.46,4.1,12.02,9.56,12.02,4.71,0,8.26-3.3,9.21-8.01h.95c-1.1,6.06-6.51,10.41-13.32,10.41-7.66,0-13.47-5.61-13.47-13.02ZM111.46,55.42h10.61c.35-1.05.55-2.15.55-3.2,0-3.4-2-6.41-4.91-6.41-3.4,0-6.01,4.31-6.26,9.61Z"/>
        <path class="cls-2" d="M134.89,62.58v-16.37h-3.3v-.9h3.5l5.61-7.76h.9v7.76h7.36v.9h-7.36v17.97c0,3.15,1.8,4.86,4.01,4.86s4-1.75,4-4.16c0-.7-.15-1.45-.5-2.2h.9c.4.9.5,1.6.5,2.2,0,3.5-3.2,5.96-7.36,5.96-4.76,0-8.26-3.2-8.26-8.26Z"/>
        <path class="cls-2" d="M152.96,49.26v-1.05c.65.45,1.65.75,2.65.75,3.5,0,5.46-3.5,5.46-6.36,0-.2,0-.5-.05-.8-.6,1.1-2,1.95-3.7,1.95-2.5,0-4.46-1.95-4.46-4.51s1.95-4.46,4.61-4.46c3.1,0,4.86,2.65,4.86,6.56,0,4.86-2.65,8.61-6.51,8.61-1,0-2.1-.25-2.85-.7Z"/>
        <path class="cls-2" d="M163.77,63.83c0-.8.15-1.65.45-2.45h.95c-.3.8-.45,1.65-.45,2.35,0,3.35,3.75,6.01,8.36,6.01,4.16,0,6.81-2.1,6.81-4.71,0-6.31-15.42-3.81-15.42-12.77,0-4.81,4.36-7.46,9.36-7.46,5.61,0,9.46,3.2,9.46,7.46h-.95c0-3.65-3.45-6.36-7.51-6.36-3.3,0-5.46,1.85-5.46,4,0,5.81,15.42,3.2,15.42,12.67,0,5.26-4.76,8.26-10.76,8.26s-10.26-3-10.26-7.01Z"/>
        <path class="cls-2" d="M80.03,84.03h7.01l11.01,26.73,11.31-26.73h6.81v35.04h-6.81v-32.34l-13.72,32.34h-.9l-13.72-32.49v32.49h-1v-35.04Z"/>
        <path class="cls-2" d="M120.97,106.56c0-7.41,5.71-13.02,13.37-13.02,6.21,0,11.21,3.55,11.21,8.91,0,.95-.15,1.8-.4,2.6h-17.12v.1c0,7.46,4.1,12.02,9.56,12.02,4.71,0,8.26-3.3,9.21-8.01h.95c-1.1,6.06-6.51,10.41-13.32,10.41-7.66,0-13.47-5.61-13.47-13.02ZM128.08,104.15h10.61c.35-1.05.55-2.15.55-3.2,0-3.4-2-6.41-4.91-6.41-3.4,0-6.01,4.31-6.26,9.61Z"/>
        <path class="cls-2" d="M149.56,106.56c0-7.41,5.71-13.02,13.37-13.02,6.21,0,11.21,3.55,11.21,8.91,0,.95-.15,1.8-.4,2.6h-17.12v.1c0,7.46,4.1,12.02,9.56,12.02,4.71,0,8.26-3.3,9.21-8.01h.95c-1.1,6.06-6.51,10.41-13.32,10.41-7.66,0-13.47-5.61-13.47-13.02ZM156.67,104.15h10.61c.35-1.05.55-2.15.55-3.2,0-3.4-2-6.41-4.91-6.41-3.4,0-6.01,4.31-6.26,9.61Z"/>
        <path class="cls-2" d="M180.09,111.31v-16.37h-3.3v-.9h3.5l5.61-7.76h.9v7.76h7.36v.9h-7.36v17.97c0,3.15,1.8,4.86,4.01,4.86s4-1.75,4-4.16c0-.7-.15-1.45-.5-2.2h.9c.4.9.5,1.6.5,2.2,0,3.5-3.2,5.96-7.36,5.96-4.76,0-8.26-3.2-8.26-8.26Z"/>
    </g>
</g>

</svg>